<?xml version="1.0" encoding="utf-8"?>
<!-- Generator: Adobe Illustrator 24.3.0, SVG Export Plug-In . SVG Version: 6.00 Build 0)  -->
<svg version="1.1" id="Layer_1" xmlns="http://www.w3.org/2000/svg" xmlns:xlink="http://www.w3.org/1999/xlink" x="0px" y="0px"
	 viewBox="0 0 179.2 179.2" style="enable-background:new 0 0 179.2 179.2;" xml:space="preserve">
<style type="text/css">
	.st0{fill:#A0A0A0;}
	.st1{fill:#FFFFFF;}
	.st2{fill:#E1002C;}
	.st3{fill:#FF7D00;}
	.st4{fill:#DCD319;}
</style>
<g>
	<circle class="st0" cx="89.6" cy="89.6" r="65.2"/>
	<g>
		<path class="st1" d="M55.9,65.6c3,1.4,4.2,2.3,5,3.8c0.9,1.7,0.6,4.5-0.9,7.7c-1.1,2.4-2.9,5.1-4.3,6.5l-6-2.8
			c0.6-0.6,1.4-1.9,1.8-2.8c0.7-1.4,0.8-2.5,0.4-3.1c-0.3-0.5-0.8-0.7-2.1-1.3l-13.7-6.4l4.2-8.9L55.9,65.6z"/>
		<path class="st1" d="M79,48c1.5,2.5,2,5.3,1.3,7.3c-0.8,2.3-3.3,4.7-7,6.9c-4.1,2.4-7.6,3.3-10.1,2.6c-2.1-0.6-3.5-2-5.2-4.8
			l-8.3-14.1L58,41l8.1,13.6c0.8,1.4,1.1,1.8,1.7,2c0.6,0.3,1.3,0.2,2.1-0.3c0.9-0.5,1.3-1.2,1.2-1.9c0-0.4-0.3-1-0.8-1.9L62,38.6
			l8.5-5L79,48z"/>
		<path class="st1" d="M113.7,62.6l-8.8-2.5l2.8-9.3c0.3-0.8,0.3-0.8,1.6-3.9l-0.2-0.1c-0.6,1-1,1.7-1.2,2L101,59l-4.9-1.4
			l-0.4-10.7c-0.1-1.7-0.1-1.9,0.1-3.7l-0.2-0.1l-0.4,1.8c-0.1,0.6-0.2,1.1-0.3,1.3l-2.8,10.2l-8.7-2.5l7-24.4l11.5,3.3l0.5,9.2
			c0,0.7,0,1.1-0.4,3.9l0.2,0.1c0.9-2,1.3-2.7,1.7-3.3l5.3-7.7l11.5,3.3L113.7,62.6z"/>
		<path class="st1" d="M143,66.3c0.9,1.7,1.4,3.8,1.1,5.2c-0.4,2.4-1.9,4.4-4.9,6c-3.6,1.9-6.9,2.2-9.3,0.8
			c-1.3-0.8-2.9-2.5-3.8-4.2l-2.7-5l-6,3.3l-4.6-8.5l22.4-12.1L143,66.3z M129.7,68c1,1.9,2.3,2.4,4,1.4c1.6-0.9,1.9-1.9,1-3.6
			l-1.2-2.2l-4.7,2.6L129.7,68z"/>
	</g>
	<path class="st2" d="M162.5,89.6h-3c0,19.3-7.8,36.7-20.5,49.4c-12.7,12.6-30.1,20.5-49.4,20.5c-19.3,0-36.7-7.8-49.4-20.5
		c-12.6-12.7-20.5-30.1-20.5-49.4c0-19.3,7.8-36.7,20.5-49.4c12.7-12.6,30.1-20.5,49.4-20.5c19.3,0,36.7,7.8,49.4,20.5
		c12.6,12.7,20.5,30.1,20.5,49.4H162.5h3c0-20.9-8.5-39.9-22.2-53.6c-13.7-13.7-32.7-22.2-53.6-22.2C68.7,13.7,49.7,22.2,36,36
		C22.2,49.7,13.7,68.7,13.8,89.6c0,20.9,8.5,39.9,22.2,53.6c13.7,13.7,32.7,22.2,53.6,22.2c20.9,0,39.9-8.5,53.6-22.2
		c13.7-13.7,22.2-32.7,22.2-53.6H162.5z"/>
	<path class="st3" d="M171.4,89.6h-2c0,22-8.9,42-23.4,56.4c-14.4,14.4-34.4,23.4-56.4,23.4c-22,0-42-8.9-56.4-23.4
		C18.7,131.6,9.8,111.7,9.8,89.6c0-22,8.9-42,23.4-56.4C47.6,18.7,67.6,9.8,89.6,9.8c22,0,42,8.9,56.4,23.4
		c14.4,14.4,23.4,34.4,23.4,56.4H171.4h2c0-46.3-37.5-83.8-83.8-83.8C43.3,5.8,5.8,43.3,5.8,89.6c0,46.3,37.5,83.8,83.8,83.8
		c46.3,0,83.8-37.5,83.8-83.8H171.4z"/>
	<path class="st4" d="M178.2,89.6h-1c0,24.2-9.8,46.1-25.7,61.9c-15.9,15.9-37.8,25.7-61.9,25.7c-24.2,0-46.1-9.8-61.9-25.7
		C11.8,135.7,2,113.8,2,89.6c0-24.2,9.8-46.1,25.7-61.9C43.5,11.8,65.4,2,89.6,2c24.2,0,46.1,9.8,61.9,25.7
		c15.9,15.9,25.7,37.8,25.7,61.9H178.2h1C179.2,40.1,139.1,0,89.6,0C40.1,0,0,40.1,0,89.6c0,49.5,40.1,89.6,89.6,89.6
		c49.5,0,89.6-40.1,89.6-89.6H178.2z"/>
	<rect x="31.5" y="87.9" class="st2" width="32.7" height="9.2"/>
	<rect x="114.9" y="87.9" class="st2" width="32.7" height="9.2"/>
	<g>
		<path class="st2" d="M109.1,109.7H94.8l-8.3-17.1c-0.3-0.5-0.4-0.9-0.8-2h-0.3c0.3,2.1,0.3,2.7,0.3,3.4v15.7h-13V73h15.9l5.4,11.3
			c0.4,0.9,0.8,1.9,2,5.3h0.3c-0.2-1.9-0.3-2.6-0.3-3.8V73h13V109.7z"/>
	</g>
	<g>
		<path class="st1" d="M63.2,135.8c-2.1,2.6-3.2,3.6-4.8,4c-1.9,0.5-4.5-0.4-7.3-2.6c-2.1-1.7-4.3-3.9-5.4-5.6l4.1-5.3
			c0.5,0.7,1.5,1.8,2.3,2.4c1.2,1,2.3,1.3,2.9,1.1c0.5-0.2,0.9-0.6,1.8-1.7l9.3-12l7.8,6.1L63.2,135.8z"/>
		<path class="st1" d="M98.4,127.8c1.8,2,2.7,5.5,2.6,9.8c-0.2,5.2-2,9.4-4.8,11.6c-1.9,1.4-5.1,2.2-9.2,2c-3.8-0.2-6.6-1-8.5-2.6
			c-2.9-2.5-4.3-6.8-4.1-12.6c0.2-4.3,1.6-7.7,3.9-9.4c2.3-1.7,5.7-2.4,10.1-2.3C93.1,124.5,96.4,125.6,98.4,127.8z M83.9,137.3
			c-0.2,4.3,0.9,6.2,3.6,6.3c2.6,0.1,3.9-1.6,4-5.4c0.1-3.7-0.8-5.1-3.6-5.2C85.2,132.9,84,134.2,83.9,137.3z"/>
		<path class="st1" d="M130.3,135.1l-7.9,6l-4.5-5.9l-17.3-9.4l8.2-6.2l4.7,3c0.9,0.6,1.6,1.3,3.8,3.5l0.2-0.1
			c-1.6-2.6-2.1-3.5-2.4-4.5l-1.6-5.3l8.1-6.1l4.4,19.2L130.3,135.1z"/>
	</g>
</g>
</svg>
